<mxfile host="65bd71144e">
    <diagram id="fTTmBWbjmylMEanPW_Ev" name="Page-1">
        <mxGraphModel dx="567" dy="433" grid="1" gridSize="10" guides="1" tooltips="1" connect="1" arrows="1" fold="1" page="1" pageScale="1" pageWidth="850" pageHeight="1100" math="0" shadow="0">
            <root>
                <mxCell id="0"/>
                <mxCell id="1" parent="0"/>
                <mxCell id="27" value="" style="whiteSpace=wrap;html=1;aspect=fixed;labelBackgroundColor=#000000;labelBorderColor=default;fontColor=none;noLabel=1;" vertex="1" parent="1">
                    <mxGeometry width="640" height="640" as="geometry"/>
                </mxCell>
                <mxCell id="2" value="(Nav-Bar)&lt;br&gt;&lt;br&gt;Logo&lt;span style=&quot;white-space: pre;&quot;&gt;&#9;&lt;/span&gt;NightOwl Photography&lt;span style=&quot;white-space: pre;&quot;&gt;&#9;&lt;/span&gt;Pricing&lt;span style=&quot;white-space: pre;&quot;&gt;&#9;&lt;/span&gt;Services&lt;span style=&quot;white-space: pre;&quot;&gt;&#9;&lt;/span&gt;Purchase Images&amp;nbsp;&lt;span style=&quot;white-space: pre;&quot;&gt;&#9;&lt;/span&gt;Portfolio&lt;span style=&quot;white-space: pre;&quot;&gt;&#9;&lt;/span&gt;Dropdown link" style="rounded=0;whiteSpace=wrap;html=1;align=left;" parent="1" vertex="1">
                    <mxGeometry width="610" height="60" as="geometry"/>
                </mxCell>
                <mxCell id="3" value="(Content Box)&lt;br&gt;Our Mission&lt;br&gt;Our Minds Work The Night Shift and our team of designers and multidisciplinary photographers work around the clock and are dedicated to creating brand identities, digital experiences, thoughtful images, and memories that last a lifetime.&amp;nbsp;" style="rounded=0;whiteSpace=wrap;html=1;align=left;" vertex="1" parent="1">
                    <mxGeometry y="70" width="600" height="70" as="geometry"/>
                </mxCell>
                <mxCell id="4" value="NightOwl Photography" style="text;html=1;strokeColor=none;fillColor=none;align=center;verticalAlign=middle;whiteSpace=wrap;rounded=0;" vertex="1" parent="1">
                    <mxGeometry x="170" y="160" width="210" height="30" as="geometry"/>
                </mxCell>
                <mxCell id="5" value="These are some of our most popular images." style="text;html=1;strokeColor=none;fillColor=none;align=center;verticalAlign=middle;whiteSpace=wrap;rounded=0;" vertex="1" parent="1">
                    <mxGeometry x="125" y="200" width="300" height="30" as="geometry"/>
                </mxCell>
                <mxCell id="6" value="" style="rounded=1;whiteSpace=wrap;html=1;rotation=90;" vertex="1" parent="1">
                    <mxGeometry x="130" y="270" width="120" height="60" as="geometry"/>
                </mxCell>
                <mxCell id="7" value="" style="rounded=1;whiteSpace=wrap;html=1;rotation=90;" vertex="1" parent="1">
                    <mxGeometry x="215" y="270" width="120" height="60" as="geometry"/>
                </mxCell>
                <mxCell id="8" value="" style="rounded=1;whiteSpace=wrap;html=1;rotation=90;" vertex="1" parent="1">
                    <mxGeometry x="300" y="270" width="120" height="60" as="geometry"/>
                </mxCell>
                <mxCell id="9" value="" style="rounded=1;whiteSpace=wrap;html=1;rotation=90;" vertex="1" parent="1">
                    <mxGeometry x="130" y="400" width="120" height="60" as="geometry"/>
                </mxCell>
                <mxCell id="10" value="" style="rounded=1;whiteSpace=wrap;html=1;rotation=90;" vertex="1" parent="1">
                    <mxGeometry x="215" y="400" width="120" height="60" as="geometry"/>
                </mxCell>
                <mxCell id="11" value="" style="rounded=1;whiteSpace=wrap;html=1;rotation=90;" vertex="1" parent="1">
                    <mxGeometry x="300" y="400" width="120" height="60" as="geometry"/>
                </mxCell>
                <mxCell id="12" value="Image" style="text;html=1;strokeColor=none;fillColor=none;align=center;verticalAlign=middle;whiteSpace=wrap;rounded=0;" vertex="1" parent="1">
                    <mxGeometry x="160" y="240" width="60" height="30" as="geometry"/>
                </mxCell>
                <mxCell id="13" value="Image" style="text;html=1;strokeColor=none;fillColor=none;align=center;verticalAlign=middle;whiteSpace=wrap;rounded=0;" vertex="1" parent="1">
                    <mxGeometry x="245" y="240" width="60" height="30" as="geometry"/>
                </mxCell>
                <mxCell id="14" value="Image" style="text;html=1;strokeColor=none;fillColor=none;align=center;verticalAlign=middle;whiteSpace=wrap;rounded=0;" vertex="1" parent="1">
                    <mxGeometry x="330" y="240" width="60" height="30" as="geometry"/>
                </mxCell>
                <mxCell id="15" value="Lorem&amp;nbsp;&lt;br&gt;Price:&lt;br&gt;Add to Cart" style="text;html=1;strokeColor=none;fillColor=none;align=center;verticalAlign=middle;whiteSpace=wrap;rounded=0;" vertex="1" parent="1">
                    <mxGeometry x="245" y="410" width="60" height="60" as="geometry"/>
                </mxCell>
                <mxCell id="16" value="Image" style="text;html=1;strokeColor=none;fillColor=none;align=center;verticalAlign=middle;whiteSpace=wrap;rounded=0;" vertex="1" parent="1">
                    <mxGeometry x="160" y="370" width="60" height="30" as="geometry"/>
                </mxCell>
                <mxCell id="17" value="Image" style="text;html=1;strokeColor=none;fillColor=none;align=center;verticalAlign=middle;whiteSpace=wrap;rounded=0;" vertex="1" parent="1">
                    <mxGeometry x="245" y="370" width="60" height="30" as="geometry"/>
                </mxCell>
                <mxCell id="18" value="Image" style="text;html=1;strokeColor=none;fillColor=none;align=center;verticalAlign=middle;whiteSpace=wrap;rounded=0;" vertex="1" parent="1">
                    <mxGeometry x="330" y="370" width="60" height="30" as="geometry"/>
                </mxCell>
                <mxCell id="19" value="Lorem&lt;br&gt;Price:&lt;br&gt;Add to Cart" style="text;html=1;strokeColor=none;fillColor=none;align=center;verticalAlign=middle;whiteSpace=wrap;rounded=0;" vertex="1" parent="1">
                    <mxGeometry x="160" y="285" width="60" height="55" as="geometry"/>
                </mxCell>
                <mxCell id="20" value="Lorem&amp;nbsp;&lt;br&gt;Price:&lt;br&gt;Add to Cart" style="text;html=1;strokeColor=none;fillColor=none;align=center;verticalAlign=middle;whiteSpace=wrap;rounded=0;" vertex="1" parent="1">
                    <mxGeometry x="330" y="410" width="60" height="50" as="geometry"/>
                </mxCell>
                <mxCell id="21" value="Lorem&lt;br&gt;Price:&lt;br&gt;Add to Cart" style="text;html=1;strokeColor=none;fillColor=none;align=center;verticalAlign=middle;whiteSpace=wrap;rounded=0;" vertex="1" parent="1">
                    <mxGeometry x="245" y="285" width="60" height="55" as="geometry"/>
                </mxCell>
                <mxCell id="22" value="Lorem&lt;br&gt;Price:&lt;br&gt;Add to Cart" style="text;html=1;strokeColor=none;fillColor=none;align=center;verticalAlign=middle;whiteSpace=wrap;rounded=0;" vertex="1" parent="1">
                    <mxGeometry x="330" y="285" width="60" height="55" as="geometry"/>
                </mxCell>
                <mxCell id="23" value="Lorem&lt;br&gt;Price:&lt;br&gt;Add to Cart" style="text;html=1;strokeColor=none;fillColor=none;align=center;verticalAlign=middle;whiteSpace=wrap;rounded=0;" vertex="1" parent="1">
                    <mxGeometry x="160" y="415" width="60" height="45" as="geometry"/>
                </mxCell>
                <mxCell id="26" value="Footer" style="rounded=0;whiteSpace=wrap;html=1;labelBackgroundColor=default;" vertex="1" parent="1">
                    <mxGeometry x="10" y="530" width="570" height="60" as="geometry"/>
                </mxCell>
            </root>
        </mxGraphModel>
    </diagram>
</mxfile>